
        <svg xmlns="http://www.w3.org/2000/svg" xmlns:xlink="http://www.w3.org/1999/xlink" version="1.1" width="3162.2925652459976" height="767.9732725627698" viewBox="0 0 3162.2925652459976 757.9732725627698">

			<g transform="scale(8.114628262299876) translate(10, 10)">
				<defs id="SvgjsDefs1941"/><g id="SvgjsG1942" featureKey="hmhgWD-0" transform="matrix(0.08396367783774038,0,0,0.08396367783774038,-1.7374891186110295,26.772909072710554)" fill="#000"><metadata xmlns="http://www.w3.org/2000/svg">Created by potrace 1.14, written by Peter Selinger 2001-2017</metadata><g xmlns="http://www.w3.org/2000/svg" transform="translate(0.000000,600.000000) scale(0.100000,-0.100000)" stroke="none"><path d="M3160 5494 c-413 -40 -538 -58 -1080 -155 -155 -28 -278 -43 -395 -50 -93 -6 -180 -14 -193 -20 -60 -24 -71 -138 -43 -444 30 -320 43 -400 117 -725 123 -538 223 -920 259 -995 31 -64 95 -145 114 -145 4 0 7 69 7 153 l-1 152 -107 325 c-219 667 -274 863 -318 1130 -37 217 -49 440 -28 480 l14 25 149 -3 c114 -3 223 4 450 27 611 62 636 63 949 62 323 -2 380 -8 585 -61 132 -35 148 -36 177 -12 36 29 51 64 53 123 3 86 -10 96 -144 114 -109 15 -478 27 -565 19z"/><path d="M4148 5382 c-76 -39 -361 -236 -506 -349 -170 -133 -958 -880 -1028 -976 -40 -54 -84 -150 -84 -182 0 -17 16 -20 25 -5 3 5 38 25 78 43 110 52 170 105 368 327 266 298 500 549 635 680 252 245 578 477 637 454 7 -2 44 -64 83 -137 43 -78 131 -214 218 -334 211 -293 458 -646 481 -690 11 -21 66 -122 122 -224 114 -206 139 -266 189 -449 19 -69 43 -133 53 -143 41 -42 138 -29 199 26 31 29 28 56 -19 165 -151 353 -337 629 -790 1172 -303 363 -324 390 -409 525 -34 55 -72 108 -84 117 -34 28 -87 22 -168 -20z"/><path d="M1182 4845 c-69 -78 -232 -321 -287 -428 -134 -257 -244 -526 -449 -1092 -42 -115 -115 -290 -163 -387 -98 -202 -98 -206 -19 -274 45 -39 299 -167 522 -262 239 -102 1292 -421 1444 -437 100 -11 240 21 184 41 -10 4 -39 23 -64 42 -100 76 -163 96 -540 176 -636 134 -854 189 -1060 264 -304 111 -479 200 -495 251 -4 14 17 56 71 142 45 73 114 207 169 328 270 601 329 722 482 975 140 233 165 266 303 410 101 106 110 118 110 153 -1 51 -16 76 -70 112 -64 43 -90 41 -138 -14z"/><path d="M3692 3829 c-90 -15 -90 -20 0 -78 132 -87 164 -97 535 -176 668 -141 871 -192 1108 -281 262 -98 455 -200 455 -242 0 -10 -32 -69 -72 -132 -39 -63 -107 -194 -151 -290 -323 -714 -342 -753 -510 -1030 -131 -217 -174 -274 -324 -431 -87 -90 -94 -105 -72 -167 13 -39 93 -92 137 -92 27 0 39 9 77 58 95 119 244 352 302 472 149 305 205 442 389 950 80 218 139 364 195 473 43 87 79 170 79 184 0 51 -82 114 -262 201 -353 173 -466 215 -1008 377 -657 197 -766 222 -878 204z"/><path d="M2881 3290 c-65 -23 -101 -46 -101 -63 0 -7 -22 -29 -49 -50 -64 -47 -98 -106 -118 -203 -14 -70 -14 -80 1 -111 9 -18 16 -44 16 -57 0 -56 32 -126 81 -180 59 -65 105 -95 151 -101 18 -2 60 -13 93 -25 70 -26 133 -22 217 11 75 29 218 175 241 245 27 81 32 159 13 188 -9 14 -16 38 -16 54 0 16 -7 49 -16 75 -28 81 -148 197 -204 197 -15 0 -47 9 -71 20 -58 26 -165 26 -238 0z"/><path d="M4095 2688 l1 -153 106 -320 c102 -308 214 -669 257 -825 74 -273 124 -709 91 -796 l-11 -27 -147 6 c-116 5 -196 1 -382 -18 -711 -72 -676 -70 -1020 -67 -345 2 -354 3 -582 59 -140 35 -147 36 -172 20 -38 -25 -57 -60 -62 -115 -6 -62 8 -100 42 -112 42 -16 329 -41 474 -41 284 0 564 34 1227 152 211 37 325 52 449 58 192 11 209 18 232 92 22 72 2 407 -43 719 -18 123 -125 591 -230 1010 -79 313 -112 400 -179 473 -19 20 -39 37 -43 37 -4 0 -8 -69 -8 -152z"/><path d="M466 2402 c-68 -39 -74 -57 -46 -134 41 -114 167 -366 234 -467 176 -269 310 -443 710 -920 101 -121 212 -266 256 -335 43 -67 87 -131 98 -143 33 -35 92 -31 177 13 110 56 477 317 610 434 194 171 844 793 908 869 46 56 86 134 94 187 6 37 5 38 -13 23 -10 -8 -59 -34 -107 -58 -107 -52 -149 -91 -446 -424 -117 -130 -289 -319 -384 -419 -316 -334 -728 -646 -793 -601 -6 5 -42 66 -81 138 -40 74 -132 216 -214 330 -183 253 -392 551 -446 635 -22 36 -92 160 -156 275 -113 208 -167 341 -207 513 -17 74 -44 103 -100 108 -36 3 -55 -2 -94 -24z"/></g></g><g id="SvgjsG1943" featureKey="1RRcwp-0" transform="matrix(2.129609339434736,0,0,2.129609339434736,63.80558649858633,18.670478964112398)" fill="#000"><path d="M4.16 20 l-2.66 0 l0 -14.24 l5.1 0 c0.98 0 1.9 0.38 2.6 1.08 c0.68 0.7 1.08 1.6 1.08 2.58 c0 2.02 -1.66 3.64 -3.68 3.64 l-2.44 0 l0 6.94 z M4.16 10.44 l2.44 0 c0.56 0 1 -0.46 1 -1.02 s-0.46 -1.04 -1 -1.04 l-2.44 0 l0 2.06 z M14.46 20 l-2.52 0 l0 -9.16 l2.52 0 l0 0.74 c0.72 -0.72 1.8 -0.96 2.52 -0.96 l0.6 0 l-0.6 2.5 l-0.38 0 c-1.18 0 -2.14 0.92 -2.14 2.02 l0 4.86 z M22.94 20.22 c-1.24 0 -2.46 -0.5 -3.4 -1.4 c-0.9 -0.94 -1.4 -2.16 -1.4 -3.4 c0 -1.26 0.5 -2.48 1.4 -3.4 c0.92 -0.88 2.12 -1.38 3.4 -1.38 c1.32 0 2.52 0.5 3.38 1.38 c0.92 0.92 1.42 2.12 1.42 3.4 s-0.5 2.48 -1.42 3.4 c-0.9 0.9 -2.1 1.4 -3.38 1.4 z M22.94 12.92 c-1.34 0 -2.44 1.12 -2.44 2.5 s1.1 2.5 2.44 2.5 c1.36 0 2.46 -1.12 2.46 -2.5 s-1.1 -2.5 -2.46 -2.5 z M33.760000000000005 25.32 c-0.96 0 -1.88 -0.24 -2.64 -0.72 l0 0 c-0.38 -0.2 -0.72 -0.52 -0.88 -0.66 l-0.32 -0.32 l1.8 -1.58 l0.26 0.22 c0.54 0.4 1.22 0.68 1.78 0.72 l0 0 l0 0 c1.36 -0.02 2.48 -1.18 2.48 -2.58 l0 -1.16 l-0.1 0.1 c-0.7 0.68 -1.36 0.78 -2.1 0.82 l-0.34 0 c-1.24 -0.04 -2.34 -0.5 -3.2 -1.36 c-0.9 -0.92 -1.4 -2.12 -1.4 -3.38 s0.5 -2.46 1.4 -3.38 c0.92 -0.9 2.12 -1.38 3.38 -1.38 c0.98 0 1.66 0.26 2.26 0.86 l0.1 0.08 l0 -0.76 l2.42 0 l0 9.58 c0 1.32 -0.52 2.54 -1.46 3.46 c-0.9 0.94 -2.12 1.44 -3.44 1.44 z M33.88 12.98 c-1.28 0 -2.36 1.12 -2.36 2.44 s1.08 2.42 2.36 2.42 s2.36 -1.1 2.36 -2.42 s-1.08 -2.44 -2.36 -2.44 z M43.620000000000005 20 l-2.52 0 l0 -9.16 l2.52 0 l0 0.74 c0.72 -0.72 1.8 -0.96 2.52 -0.96 l0.6 0 l-0.6 2.5 l-0.38 0 c-1.18 0 -2.14 0.92 -2.14 2.02 l0 4.86 z M51.74 20.22 l-0.02 0 c-0.58 0 -1.18 -0.14 -1.74 -0.4 c-0.52 -0.22 -1 -0.58 -1.44 -1.04 c-0.7 -0.76 -1.12 -1.76 -1.22 -2.8 c-0.02 -0.18 -0.04 -0.36 -0.04 -0.56 c0 -0.4 0.06 -0.82 0.16 -1.24 c0.18 -0.8 0.56 -1.54 1.1 -2.1 c0.4 -0.44 0.86 -0.78 1.44 -1.06 c0.54 -0.26 1.14 -0.38 1.76 -0.38 c0.64 0 1.22 0.12 1.76 0.38 c0.6 0.28 1.08 0.64 1.44 1.06 c0.52 0.56 0.92 1.28 1.12 2.1 c0.1 0.38 0.14 0.78 0.14 1.24 l0 0.46 l-6.72 0 l0.02 0.14 c0.26 1.24 1.2 2.14 2.24 2.14 l0.02 0 c0.58 -0.04 1.22 -0.4 1.6 -0.72 l0.22 -0.18 l1.66 1.44 l-0.3 0.26 c-0.22 0.2 -0.5 0.44 -0.8 0.6 l-0.02 0 c-0.72 0.42 -1.5 0.64 -2.38 0.66 z M51.74 12.719999999999999 c-0.78 0 -1.56 0.54 -1.98 1.38 l-0.08 0.16 l4.14 0 l-0.08 -0.16 c-0.46 -0.86 -1.22 -1.38 -2 -1.38 z M61.1 20.08 c-0.28 0 -0.58 -0.04 -0.94 -0.1 c-1 -0.2 -1.94 -0.64 -2.68 -1.3 l-0.3 -0.24 l1.5 -1.66 l0.28 0.26 c0.88 0.74 1.6 0.88 2.06 0.88 c0.34 0 0.58 -0.04 0.82 -0.16 c0.3 -0.12 0.44 -0.32 0.44 -0.6 c0 -0.24 -0.14 -0.54 -1.32 -0.74 c-1.08 -0.22 -1.76 -0.44 -2.08 -0.62 c-0.42 -0.24 -0.76 -0.56 -1 -0.96 s-0.36 -0.84 -0.36 -1.34 c0 -0.52 0.16 -1.02 0.48 -1.48 c0.26 -0.38 0.64 -0.68 1.2 -0.96 c0.46 -0.22 0.98 -0.32 1.6 -0.32 c0.22 0 0.44 0.02 0.64 0.04 c0.88 0.14 1.76 0.52 2.48 1.08 l0.3 0.24 l-1.42 1.64 l-0.28 -0.22 c-0.7 -0.56 -1.3 -0.66 -1.66 -0.66 c-0.26 0 -0.5 0.04 -0.72 0.14 c-0.26 0.14 -0.4 0.36 -0.4 0.5 c0 0.28 0.2 0.48 1.24 0.72 c1.36 0.32 1.8 0.48 2.08 0.6 c0.56 0.32 0.8 0.58 1 0.84 c0.3 0.42 0.44 0.94 0.44 1.5 c0 0.58 -0.16 1.1 -0.46 1.52 s-0.7 0.78 -1.28 1.06 c-0.46 0.22 -1.06 0.34 -1.66 0.34 z M69.82 20.08 c-0.28 0 -0.58 -0.04 -0.94 -0.1 c-1 -0.2 -1.94 -0.64 -2.68 -1.3 l-0.3 -0.24 l1.5 -1.66 l0.28 0.26 c0.88 0.74 1.6 0.88 2.06 0.88 c0.34 0 0.58 -0.04 0.82 -0.16 c0.3 -0.12 0.44 -0.32 0.44 -0.6 c0 -0.24 -0.14 -0.54 -1.32 -0.74 c-1.08 -0.22 -1.76 -0.44 -2.08 -0.62 c-0.42 -0.24 -0.76 -0.56 -1 -0.96 s-0.36 -0.84 -0.36 -1.34 c0 -0.52 0.16 -1.02 0.48 -1.48 c0.26 -0.38 0.64 -0.68 1.2 -0.96 c0.46 -0.22 0.98 -0.32 1.6 -0.32 c0.22 0 0.44 0.02 0.64 0.04 c0.88 0.14 1.76 0.52 2.48 1.08 l0.3 0.24 l-1.42 1.64 l-0.28 -0.22 c-0.7 -0.56 -1.3 -0.66 -1.66 -0.66 c-0.26 0 -0.5 0.04 -0.72 0.14 c-0.26 0.14 -0.4 0.36 -0.4 0.5 c0 0.28 0.2 0.48 1.24 0.72 c1.36 0.32 1.8 0.48 2.08 0.6 c0.56 0.32 0.8 0.58 1 0.84 c0.3 0.42 0.44 0.94 0.44 1.5 c0 0.58 -0.16 1.1 -0.46 1.52 s-0.7 0.78 -1.28 1.06 c-0.46 0.22 -1.06 0.34 -1.66 0.34 z M85.25999999999999 20 l-2.68 0 l0 -11.6 l-3.5 0 l0 -2.64 l9.68 0 l0 2.64 l-3.5 0 l0 11.6 z M91.85999999999999 20 l-2.52 0 l0 -9.16 l2.52 0 l0 0.74 c0.72 -0.72 1.8 -0.96 2.52 -0.96 l0.6 0 l-0.6 2.5 l-0.38 0 c-1.18 0 -2.14 0.92 -2.14 2.02 l0 4.86 z M100.39999999999999 20.18 c-1.26 0 -2.46 -0.48 -3.38 -1.38 c-0.9 -0.92 -1.4 -2.12 -1.4 -3.38 s0.5 -2.46 1.4 -3.38 c0.9 -0.9 2.1 -1.38 3.38 -1.38 c0.84 0 1.6 0.3 2.26 0.9 l0.1 0.08 l0 -0.8 l2.42 0 l0 9.16 l-2.42 0 l0 -0.72 l-0.1 0.1 c-0.72 0.7 -1.54 0.8 -2.26 0.8 z M100.39999999999999 13 c-1.28 0 -2.36 1.12 -2.36 2.42 c0 1.32 1.08 2.42 2.36 2.42 s2.36 -1.1 2.36 -2.42 c0 -1.3 -1.08 -2.42 -2.36 -2.42 z M111.75999999999999 20.2 c-1.28 0 -2.48 -0.5 -3.38 -1.38 l-0.02 -0.02 c-0.88 -0.9 -1.38 -2.1 -1.38 -3.38 s0.5 -2.5 1.38 -3.4 c0.9 -0.88 2.1 -1.38 3.4 -1.38 c1.32 0 2.52 0.48 3.38 1.38 c0.2 0.2 0.36 0.38 0.5 0.56 l0.24 0.36 l-1.96 1.46 l-0.28 -0.38 c-0.48 -0.64 -1.18 -1.04 -1.88 -1.04 c-1.26 0 -2.34 1.12 -2.34 2.44 s1.08 2.44 2.34 2.44 c0.7 0 1.4 -0.4 1.88 -1.08 l0.26 -0.36 l2.04 1.46 l-0.3 0.38 c-0.04 0.06 -0.1 0.12 -0.16 0.18 c-0.1 0.12 -0.22 0.26 -0.34 0.38 c-0.88 0.88 -2.08 1.38 -3.38 1.38 z M127.3 20 l-3.12 0 l-3.18 -4.06 l-0.82 0.84 l0 3.22 l-2.6 0 l0 -14.68 l2.6 0 l0 7.94 l2.52 -2.42 l3.54 0 l-3.44 3.28 z M131.79999999999998 20.22 l-0.02 0 c-0.58 0 -1.18 -0.14 -1.74 -0.4 c-0.52 -0.22 -1 -0.58 -1.44 -1.04 c-0.7 -0.76 -1.12 -1.76 -1.22 -2.8 c-0.02 -0.18 -0.04 -0.36 -0.04 -0.56 c0 -0.4 0.06 -0.82 0.16 -1.24 c0.18 -0.8 0.56 -1.54 1.1 -2.1 c0.4 -0.44 0.86 -0.78 1.44 -1.06 c0.54 -0.26 1.14 -0.38 1.76 -0.38 c0.64 0 1.22 0.12 1.76 0.38 c0.6 0.28 1.08 0.64 1.44 1.06 c0.52 0.56 0.92 1.28 1.12 2.1 c0.1 0.38 0.14 0.78 0.14 1.24 l0 0.46 l-6.72 0 l0.02 0.14 c0.26 1.24 1.2 2.14 2.24 2.14 l0.02 0 c0.58 -0.04 1.22 -0.4 1.6 -0.72 l0.22 -0.18 l1.66 1.44 l-0.3 0.26 c-0.22 0.2 -0.5 0.44 -0.8 0.6 l-0.02 0 c-0.72 0.42 -1.5 0.64 -2.38 0.66 z M131.79999999999998 12.719999999999999 c-0.78 0 -1.56 0.54 -1.98 1.38 l-0.08 0.16 l4.14 0 l-0.08 -0.16 c-0.46 -0.86 -1.22 -1.38 -2 -1.38 z M140.52 20 l-2.52 0 l0 -9.16 l2.52 0 l0 0.74 c0.72 -0.72 1.8 -0.96 2.52 -0.96 l0.6 0 l-0.6 2.5 l-0.38 0 c-1.18 0 -2.14 0.92 -2.14 2.02 l0 4.86 z"/></g>
			</g>
		</svg>
